<svg width="520" height="180" viewBox="0 0 520 180" fill="none" xmlns="http://www.w3.org/2000/svg">
  <rect width="520" height="180" rx="36" fill="#FBF8EF"/>
  <path d="M66 119V61h13.6l22.2 31.7L124 61h13.6v58h-15V85.3l-17.3 24.2h-7.1L81 85.5V119H66Z" fill="#173A32"/>
  <path d="M164.4 119V61h15.4v58h-15.4Z" fill="#173A32"/>
  <path d="M230.7 120.3c-18.6 0-31.8-12.8-31.8-30.3 0-17.6 13.5-30.3 32-30.3 10.4 0 19 3.8 24.5 10.6l-9.8 9.1c-3.7-4.3-8.1-6.5-13.9-6.5-10.1 0-17.1 7-17.1 17.1s7 17.1 17.1 17.1c5.8 0 10.2-2.2 13.9-6.5l9.8 9.1c-5.5 6.8-14.1 10.6-24.7 10.6Z" fill="#173A32"/>
  <path d="M272.8 119V61h43.6v12h-28.2v10.4h25.1v11.6h-25.1V107h29.3v12h-44.7Z" fill="#173A32"/>
  <path d="M337.4 119V61h15.4v45.8h28.2V119h-43.6Z" fill="#173A32"/>
  <path d="M399.3 119V61h15.4v58h-15.4Z" fill="#173A32"/>
  <path d="M71 145c-7.8 0-15.4-2.1-19.8-5.3l4.8-10.9c4.1 2.9 10.1 4.8 15.1 4.8 5.3 0 7.4-1.5 7.4-3.8 0-7.4-26.6-2-26.6-19.3 0-8.3 6.8-15.1 20.8-15.1 6.1 0 12.4 1.4 17 4.1l-4.5 10.9c-4.5-2.4-8.8-3.5-12.6-3.5-5.4 0-7.3 1.8-7.3 4.2 0 7.1 26.5 1.8 26.5 18.9 0 8.1-6.8 15-20.8 15Z" fill="#E87945"/>
  <path d="M122.2 145c-14.7 0-25.5-10.2-25.5-24.8s10.8-24.8 25.5-24.8 25.5 10.2 25.5 24.8S136.9 145 122.2 145Zm0-12.3c6.5 0 11.5-4.9 11.5-12.5s-5-12.5-11.5-12.5-11.5 4.9-11.5 12.5 5 12.5 11.5 12.5Z" fill="#E87945"/>
  <path d="M179.8 145c-15.3 0-26.1-10.4-26.1-24.8s10.8-24.8 26.4-24.8c9.1 0 16.4 3.3 21.1 9.2l-8.9 8.1c-3.1-3.6-6.8-5.5-11.5-5.5-7.8 0-13.1 5.4-13.1 13s5.3 13 13.1 13c4.7 0 8.4-1.9 11.5-5.5l8.9 8.1c-4.7 5.9-12 9.2-21.4 9.2Z" fill="#E87945"/>
  <path d="M211.6 144V96.4h13.8V144h-13.8Z" fill="#E87945"/>
  <path d="M234.8 144l21-47.6h13.6l21.1 47.6h-14.4l-3.7-9.2h-20.1l-3.7 9.2h-13.8Zm21.5-19.4h12.1l-6.1-15.2-6 15.2Z" fill="#E87945"/>
  <path d="M299.8 144V96.4h13.8v36.7h22.6V144h-36.4Z" fill="#E87945"/>
</svg>
