<svg width="145" height="74" viewBox="0 0 145 74" fill="none" xmlns="http://www.w3.org/2000/svg">
<g id="Frame" clip-path="url(#clip0_451_86)">
<g id="Group">
<g id="Group_2">
<path id="Vector" d="M95.9915 44.3997C95.789 45.4134 95.384 46.6299 94.5739 47.4408C93.9664 48.2518 92.9538 49.0627 91.9412 49.671C91.1312 50.0764 90.1186 50.4819 89.106 50.6847C88.0935 50.8874 87.0809 50.6847 86.2708 50.4819C85.2583 50.2792 84.4482 49.8737 83.6382 49.2655C82.0181 47.8463 81.0055 46.0217 80.803 43.9943C80.803 42.9806 80.803 42.1696 81.208 41.1559C81.613 40.1422 82.0181 39.3312 82.6256 38.723C83.2331 37.9121 84.2457 37.3038 85.0558 36.8984C85.8658 36.4929 86.8784 36.0874 87.6884 36.0874C88.4985 36.0874 89.5111 36.0874 90.3211 36.4929C91.1312 36.8984 91.9412 37.3038 92.5488 37.9121C93.3588 38.723 93.9664 39.534 94.3714 40.3449L94.979 41.5614L86.0683 46.2244C86.4734 46.8326 87.2834 47.2381 87.891 47.4408C88.701 47.6436 89.5111 47.4408 90.1186 47.0353C90.7262 46.8326 91.1312 46.2244 91.5362 45.8189C91.7387 45.2107 91.9412 44.8052 92.1438 44.197L95.9915 44.3997ZM89.9161 40.5477C89.7136 39.9395 89.106 39.534 88.296 39.1285C87.6884 38.9258 86.8784 38.9258 86.2708 39.3312C85.8658 39.534 85.4608 39.7367 85.2583 40.1422C85.0558 40.3449 84.8533 40.7504 84.6507 41.1559C84.4482 41.5614 84.4482 41.7641 84.4482 42.1696C84.4482 42.5751 84.6507 42.7778 84.6507 43.1833L89.9161 40.5477Z" fill="white"/>
<path id="Vector_2" d="M106.32 39.7371C106.117 40.548 105.915 41.359 105.307 42.1699C104.7 42.7782 104.092 43.3864 103.282 43.7919C102.674 43.9946 102.067 44.4001 101.459 44.4001C100.852 44.6028 100.244 44.6028 99.6367 44.4001C99.0292 44.1973 98.4216 43.9946 98.0166 43.7919C97.409 43.3864 97.004 42.9809 96.8015 42.3727C96.3965 41.7645 96.194 41.1562 96.194 40.3453C96.194 39.7371 96.3965 39.1288 96.599 38.5206C96.8015 37.9124 97.2065 37.5069 97.8141 36.8987C98.2191 36.4932 98.8266 35.885 99.4342 35.4795C100.042 35.074 100.649 34.6686 101.257 34.2631C101.864 33.8576 102.472 33.6549 102.877 33.2494C102.472 32.6412 102.067 32.2357 101.257 32.0329C100.649 31.8302 99.8392 32.0329 99.2317 32.4384C98.6241 32.8439 98.0166 33.2494 97.8141 33.6549C97.409 34.2631 97.2065 34.8713 97.004 35.4795L93.9663 34.4658C94.3713 33.4521 94.9789 32.4384 95.5864 31.6275C96.3965 30.8165 97.2065 30.0056 98.2191 29.6001C99.2317 28.9919 100.244 28.7891 101.257 28.5864C102.067 28.3836 102.877 28.5864 103.687 28.9919C104.497 29.3973 105.105 29.8028 105.712 30.6138C106.32 31.4247 106.927 32.2357 107.332 33.2494L110.775 39.5343L107.332 41.359L106.32 39.7371ZM103.282 36.2905C103.079 36.4932 102.674 36.696 102.269 36.8987C101.864 37.1014 101.459 37.5069 101.054 37.7097C100.649 37.9124 100.447 38.3179 100.244 38.7234C100.042 39.1288 100.042 39.5343 100.447 39.9398C100.649 40.3453 101.054 40.7508 101.662 40.7508C102.067 40.7508 102.674 40.7508 103.079 40.3453C103.484 40.1425 103.687 39.9398 104.092 39.5343C104.295 39.3316 104.7 38.9261 104.902 38.5206C105.105 38.1151 105.105 37.9124 105.105 37.5069C105.105 37.1014 104.902 36.696 104.902 36.2905L104.497 35.4795L103.282 36.2905Z" fill="white"/>
<path id="Vector_3" d="M105.712 25.9506L109.56 23.9232L110.572 25.9506C110.572 25.1397 110.775 24.126 111.18 23.5177C111.585 22.7068 112.193 22.0986 113.003 21.8958C113.205 21.6931 113.408 21.6931 113.61 21.4903C113.813 21.4903 114.015 21.2876 114.218 21.2876L116.04 24.7342C115.635 24.7342 115.433 24.9369 115.23 24.9369C115.028 25.1397 114.623 25.1397 114.42 25.3424C113.813 25.5451 113.205 26.1534 112.8 26.5588C112.395 26.9643 112.395 27.3698 112.193 27.978C112.193 28.5862 112.193 28.9917 112.395 29.5999C112.598 30.2081 112.8 30.8164 113.205 31.4246L116.04 36.6958L112.193 38.7232L105.712 25.9506Z" fill="white"/>
<path id="Vector_4" d="M126.976 18.6519L123.533 20.4765L125.761 24.5313C125.964 24.9368 126.166 25.1395 126.369 25.545C126.571 25.7478 126.774 25.9505 126.976 26.1532C127.179 26.356 127.584 26.356 127.786 26.356C128.191 26.356 128.596 26.1532 128.799 25.9505C129.001 25.7478 129.406 25.545 129.609 25.545C129.811 25.3423 130.014 25.1395 130.216 24.9368L131.836 28.1806C131.431 28.5861 131.026 28.9916 130.621 29.1943C130.216 29.3971 129.811 29.8025 129.406 30.0053C128.799 30.4108 128.191 30.6135 127.584 30.8162C126.976 31.019 126.369 31.019 125.761 31.019C125.154 31.019 124.749 30.6135 124.141 30.4108C123.533 30.0053 123.128 29.3971 122.926 28.7888L119.888 22.9094L117.458 24.1258L115.838 21.0847L118.268 19.6656L116.85 16.8272L120.698 14.7998L122.116 17.6382L125.559 15.8135L126.976 18.6519Z" fill="white"/>
<path id="Vector_5" d="M126.571 5.87939L131.229 14.5972C131.229 14.1917 131.229 13.989 131.229 13.5835C131.229 13.178 131.431 12.9753 131.634 12.5698C131.837 12.1643 132.039 11.9616 132.444 11.5561C132.849 11.1506 133.254 10.9479 133.659 10.7451C134.469 10.3397 135.279 9.93419 136.292 9.93419C137.102 9.93419 137.709 10.1369 138.317 10.3397C138.925 10.7451 139.532 11.1506 139.937 11.7588C140.545 12.3671 140.95 13.178 141.355 13.989L145 20.8821L141.152 22.9095L137.912 16.8273C137.709 16.6246 137.507 16.2191 137.304 15.8136C137.102 15.4082 136.899 15.2054 136.494 14.7999C135.887 14.1917 134.874 14.1917 134.267 14.5972C133.862 14.7999 133.457 15.2054 133.254 15.4082C133.052 15.8136 132.849 16.0164 132.849 16.4219C132.849 16.8273 132.849 17.2328 133.052 17.6383C133.254 18.2465 133.457 18.652 133.659 19.0575L136.899 25.1397L133.052 27.1671L122.723 7.70405L126.571 5.87939Z" fill="white"/>
</g>
<path id="Vector_6" d="M28.2025 67.701C28.405 67.0928 28.6075 66.4845 29.0126 65.8763C29.8226 64.8626 31.0377 64.2544 32.2528 64.0517C33.6704 63.8489 34.8855 64.2544 35.898 65.0654C36.9106 65.8763 37.5182 67.0928 37.7207 68.3092C37.9232 69.7284 37.5182 70.9448 36.7081 71.9585C35.898 72.9722 34.683 73.5804 33.4679 73.7832C32.0503 73.9859 30.8352 73.5804 29.8226 72.7695C28.8101 71.9585 28.2025 70.7421 28 69.5256C28 68.9174 28 68.3092 28.2025 67.701Z" fill="white"/>
<path id="Vector_7" d="M123.128 11.5562L9.51806 74.0001L7.89795 70.959L121.508 8.51514L123.128 11.5562Z" fill="white"/>
<g id="Group_3">
<path id="Vector_8" d="M0 54.9424L3.84777 52.915L4.86034 54.9424C4.86034 54.1315 5.06285 53.3205 5.26536 52.5095C5.67039 51.6986 6.27793 51.0904 7.08799 50.6849C7.2905 50.4821 7.49302 50.4821 7.69553 50.2794C7.89805 50.2794 8.10056 50.0767 8.30307 50.0767L10.1257 53.5232C9.72067 53.5232 9.51816 53.726 9.31564 53.726C9.11313 53.9287 8.7081 53.9287 8.50559 54.1315C8.10056 54.3342 7.49302 54.7397 7.08799 55.3479C6.88548 55.7534 6.68296 56.1589 6.48045 56.7671C6.48045 57.3753 6.48045 57.7808 6.88548 58.389C7.08799 58.9972 7.49302 59.6054 7.69553 60.2136L10.5307 65.2821L6.68296 67.3095L0 54.9424Z" fill="white"/>
<path id="Vector_9" d="M26.7319 53.3207C26.5294 54.3344 26.1243 55.5509 25.5168 56.3618C24.9093 57.3755 23.8967 57.9837 22.8841 58.592C22.0741 59.2002 21.0615 59.4029 20.0489 59.6057C19.0364 59.8084 18.0238 59.8084 17.2137 59.4029C16.2012 59.2002 15.3911 58.7947 14.581 58.1865C12.9609 56.97 11.9484 54.9426 11.7458 52.9153C11.7458 51.9016 11.7458 50.8879 12.1509 50.0769C12.5559 49.0632 12.9609 48.2522 13.5685 47.644C14.176 46.8331 14.9861 46.2248 15.9986 45.6166C16.8087 45.2111 17.6188 44.8057 18.6313 44.8057C19.4414 44.8057 20.4539 44.8057 21.264 45.0084C22.0741 45.4139 22.8841 45.8194 23.4917 46.4276C24.3017 47.0358 24.9093 48.0495 25.3143 48.8605L25.9218 50.0769L17.2137 54.9426C17.6188 55.5509 18.4288 55.9563 19.2389 56.1591C20.0489 56.3618 20.859 56.1591 21.4665 55.7536C22.0741 55.5509 22.4791 54.9426 22.8841 54.5372C23.0866 53.9289 23.2891 53.5235 23.4917 52.9153L26.7319 53.3207ZM20.454 49.6714C20.2514 49.0632 19.6439 48.6577 19.0364 48.455C18.4288 48.2522 17.6188 48.2522 17.0112 48.6577C16.6062 48.8605 16.2012 49.0632 15.9986 49.4687C15.7961 49.6714 15.5936 50.0769 15.3911 50.4824C15.1886 50.8879 15.1886 51.0906 15.1886 51.4961C15.1886 51.9016 15.3911 52.1043 15.3911 52.5098L20.454 49.6714Z" fill="white"/>
<path id="Vector_10" d="M32.6048 41.5618C31.7948 41.1563 30.5797 41.1563 29.7696 41.7645C29.3646 41.9673 29.1621 42.17 28.9596 42.5755C28.7571 42.981 28.7571 43.3864 28.9596 43.5892C29.1621 43.7919 29.3646 43.9947 29.7696 43.9947C30.1747 43.9947 30.7822 43.7919 31.1872 43.7919L33.0099 43.3864C33.6174 43.1837 34.2249 43.1837 34.8325 43.1837C35.44 43.1837 36.0476 43.3864 36.6551 43.5892C37.2627 43.9947 37.8702 44.6029 38.0727 45.2111C38.4777 45.8193 38.6803 46.6303 38.6803 47.4412C38.6803 48.0495 38.4777 48.8604 38.0727 49.4686C37.6677 50.0768 37.2627 50.6851 36.6551 51.0906C36.0476 51.496 35.44 52.1042 34.8325 52.307C34.0224 52.7125 33.0099 53.1179 31.9973 53.3207C30.9847 53.5234 29.9722 53.5234 28.9596 53.3207L29.7696 49.4686C30.3772 49.6714 30.9847 49.8741 31.5923 49.8741C32.1998 49.8741 32.8073 49.6714 33.2124 49.4686C33.6174 49.2659 34.0224 49.0632 34.2249 48.6577C34.4275 48.4549 34.63 48.0495 34.4275 47.644C34.2249 47.2385 33.8199 47.2385 33.6174 47.2385C33.2124 47.2385 32.6048 47.4412 32.1998 47.4412L30.3772 47.644C29.7696 47.8467 29.1621 47.8467 28.5546 47.8467C27.947 47.8467 27.3395 47.644 26.7319 47.4412C26.1244 47.0358 25.5168 46.4275 25.3143 45.8193C24.9093 45.2111 24.7068 44.4001 24.7068 43.7919C24.7068 43.1837 24.9093 42.3727 25.1118 41.7645C25.5168 41.1563 25.9219 40.5481 26.3269 40.1426C26.9344 39.7371 27.542 39.1289 28.1495 38.9262C28.9596 38.5207 29.9721 38.1152 30.7822 37.9125C31.7948 37.7097 32.6048 37.7097 33.6174 38.1152L32.6048 41.5618Z" fill="white"/>
<path id="Vector_11" d="M32.4022 31.83C31.7946 30.6136 32.1997 29.1944 33.4147 28.3834C34.6298 27.5725 36.0474 28.1807 36.8575 29.3971C37.465 30.6136 37.06 32.0327 35.8449 32.8437C35.2374 33.2492 34.6298 33.2492 34.0223 33.0464C33.2122 33.0464 32.6047 32.4382 32.4022 31.83ZM34.8323 35.682L38.6801 33.6546L45.5656 46.0218L41.7178 48.0492L34.8323 35.682Z" fill="white"/>
<path id="Vector_12" d="M37.0601 25.545L40.9078 23.5176L51.4386 42.5751L47.5908 44.6025L37.0601 25.545Z" fill="white"/>
<path id="Vector_13" d="M44.148 25.3422C43.5405 24.1258 43.9455 22.7066 45.1606 21.8956C46.3757 21.2874 47.7933 21.6929 48.6033 22.9093C49.2109 24.1258 48.8058 25.545 47.5908 26.3559C46.9832 26.7614 46.3757 26.7614 45.7681 26.5587C45.1606 26.3559 44.553 25.9504 44.148 25.3422ZM46.7807 28.9915L50.6285 26.9641L57.5139 39.3313L53.6662 41.3587L46.7807 28.9915Z" fill="white"/>
<path id="Vector_14" d="M69.4624 29.6C69.2598 30.6137 68.8548 31.8302 68.2473 32.6411C67.6397 33.6548 66.6272 34.263 65.6146 34.8713C64.8045 35.4795 63.792 35.6822 62.7794 35.885C61.7668 36.0877 60.7543 36.0877 59.9442 35.6822C58.9316 35.4795 58.1216 35.074 57.3115 34.4658C55.6914 33.2493 54.6788 31.2219 54.4763 29.1945C54.4763 28.1809 54.4763 27.1672 54.8813 26.3562C55.2864 25.3425 55.6914 24.5315 56.2989 23.9233C56.9065 23.1124 57.7165 22.5041 58.7291 21.8959C59.5392 21.4904 60.3492 21.085 61.3618 21.085C62.1718 21.085 63.1844 21.085 63.9945 21.2877C64.8045 21.6932 65.6146 22.0987 66.2221 22.7069C67.0322 23.3151 67.6397 24.3288 68.0448 25.1398L68.6523 26.3562L59.9442 31.2219C60.3492 31.8302 61.1593 32.2356 61.9693 32.4384C62.7794 32.6411 63.5894 32.4384 64.197 32.0329C64.8045 31.8302 65.2096 31.2219 65.6146 30.8165C65.8171 30.2082 66.0196 29.8028 66.2221 29.1945L69.4624 29.6ZM63.3869 26.1535C62.9819 25.5452 62.5769 25.1398 61.7668 24.937C61.1593 24.7343 60.3492 24.7343 59.7417 25.1398C59.3367 25.3425 58.9316 25.5452 58.7291 25.9507C58.5266 26.1535 58.3241 26.5589 58.1216 26.9644C57.9191 27.3699 57.9191 27.5726 57.9191 27.9781C57.9191 28.3836 58.1216 28.5863 58.1216 28.9918L63.3869 26.1535Z" fill="white"/>
<path id="Vector_15" d="M65.6145 18.652L69.2598 16.6246L70.2723 18.2465C70.2723 17.841 70.2723 17.6383 70.4748 17.2328C70.4748 16.8273 70.6773 16.4219 70.8799 16.2191C71.0824 15.8136 71.2849 15.4082 71.6899 15.2054C72.0949 14.7999 72.5 14.5972 72.905 14.3945C73.7151 13.989 74.5251 13.5835 75.5377 13.5835C76.3477 13.5835 76.9553 13.7862 77.5628 13.989C78.1704 14.3945 78.7779 14.7999 79.1829 15.4082C79.7905 16.0164 80.1955 16.8273 80.6005 17.6383L84.2458 24.5314L80.398 26.5588L77.1578 20.4766C76.9553 20.0712 76.7528 19.6657 76.5503 19.4629C76.3477 19.0575 76.1452 18.8547 75.7402 18.4493C75.1327 17.841 74.1201 17.841 73.5125 18.2465C73.1075 18.4493 72.7025 18.8547 72.5 19.2602C72.2975 19.6657 72.0949 19.8684 72.0949 20.2739C72.0949 20.6794 72.0949 21.0849 72.2975 21.4903C72.5 21.8958 72.7025 22.3013 72.905 22.7068L76.3477 28.789L72.5 30.8164L65.6145 18.652Z" fill="white"/>
<path id="Vector_16" d="M89.5112 10.5426C89.1062 10.3398 88.7011 10.3398 88.2961 10.3398C87.8911 10.3398 87.4861 10.5426 87.081 10.7453C86.271 11.1508 85.6634 11.9617 85.2584 12.7727C85.0559 13.7864 85.2584 14.5974 85.6634 15.4083C86.0685 16.2193 86.8785 16.8275 87.6886 17.233C88.7011 17.4357 89.5112 17.4357 90.3213 16.8275C90.7263 16.6248 91.1313 16.422 91.3338 16.0165C91.5363 15.6111 91.7389 15.4083 91.7389 15.0028L95.7891 16.2193C95.5866 17.0302 94.9791 17.8412 94.3715 18.6521C93.764 19.2604 93.1565 19.8686 92.3464 20.2741C91.5363 20.8823 90.5238 21.085 89.5112 21.2878C88.4986 21.4905 87.4861 21.4905 86.676 21.085C85.6634 20.8823 84.8534 20.4768 84.0433 19.8686C83.2333 19.2604 82.6257 18.4494 82.0182 17.4357C81.4106 16.6248 81.2081 15.6111 81.0056 14.3946C81.0056 13.3809 81.0056 12.3672 81.4106 11.5563C81.8157 10.5426 82.2207 9.7316 82.8282 9.12338C83.4358 8.31242 84.2458 7.7042 85.2584 7.09598C86.0685 6.69051 86.8785 6.28503 87.6886 6.28503C88.7011 6.08229 89.5112 6.08229 90.5238 6.48777L89.5112 10.5426Z" fill="white"/>
<path id="Vector_17" d="M107.94 8.51507C107.737 9.52877 107.332 10.7452 106.725 11.5562C106.117 12.5699 105.105 13.1781 104.092 13.7863C103.282 14.3945 102.27 14.5973 101.257 14.8C100.244 15.0027 99.2319 15.0027 98.4219 14.5973C97.4093 14.3945 96.5992 13.989 95.7892 13.3808C94.9791 12.7726 94.3716 11.9616 93.764 10.9479C93.1565 10.137 92.954 9.12329 92.7515 8.10959C92.7515 7.09589 92.7515 6.08219 93.1565 5.27123C93.5615 4.25753 93.9666 3.44658 94.5741 2.83836C95.1816 2.0274 95.9917 1.41918 97.0043 0.810959C97.8143 0.405479 98.6244 0 99.6369 0C100.447 0 101.46 0 102.27 0.20274C103.08 0.608219 103.89 1.0137 104.497 1.62192C105.307 2.23014 105.915 3.24384 106.32 4.05479L106.927 5.27123L98.2193 10.137C98.6244 10.7452 99.4344 11.1507 100.244 11.3534C101.055 11.5562 101.865 11.3534 102.472 10.9479C103.08 10.7452 103.485 10.137 103.89 9.73151C104.092 9.12329 104.295 8.71781 104.497 8.10959L107.94 8.51507ZM101.662 4.86575C101.257 4.25753 100.852 3.85205 100.042 3.64931C99.4344 3.44658 98.6244 3.44658 98.0168 3.85205C97.8143 4.05479 97.4093 4.25753 97.2068 4.66301C97.0043 4.86575 96.8017 5.27123 96.5992 5.67671C96.3967 6.08219 96.3967 6.28493 96.3967 6.69041C96.3967 7.09589 96.5992 7.29863 96.5992 7.70411L101.662 4.86575Z" fill="white"/>
</g>
</g>
</g>
<defs>
<clipPath id="clip0_451_86">
<rect width="145" height="74" fill="white"/>
</clipPath>
</defs>
</svg>
